<svg id="Layer_1" data-name="Layer 1" xmlns="http://www.w3.org/2000/svg" viewBox="0 0 105 21.75"><defs><style>.cls-1{fill:#41aed9;}.cls-2{fill:#a0dbf2;}</style></defs><title>logo</title><path class="cls-1" d="M21.75.08V21.83H0V.08L10.82,11Z" transform="translate(0 -0.08)"/><path class="cls-1" d="M24.86,21.83V.08H35V21.83Z" transform="translate(0 -0.08)"/><path class="cls-1" d="M55.28,10.22H51.84V21.83H41.69V10.22H38.1V.08H55.28Z" transform="translate(0 -0.08)"/><path class="cls-1" d="M80.14.08V21.83H70.27V14.9h-2v6.93H58.39V.08h9.87V7.85h2V.08Z" transform="translate(0 -0.08)"/><path class="cls-1" d="M83.25,11A10.88,10.88,0,1,1,94.12,21.83,10.87,10.87,0,0,1,83.25,11Z" transform="translate(0 -0.08)"/><rect class="cls-2" x="24.86" width="10.14" height="10.88"/><rect class="cls-2" x="41.69" y="10.14" width="10.14" height="11.61"/><rect class="cls-2" x="68.26" y="7.78" width="2.01" height="7.05"/><polygon class="cls-2" points="21.75 21.75 10.82 10.88 21.75 0 21.75 21.75"/><path class="cls-2" d="M90,11A4.08,4.08,0,1,1,94.12,15,4.08,4.08,0,0,1,90,11Z" transform="translate(0 -0.08)"/></svg>